<?xml version="1.0" standalone="no"?>
<!DOCTYPE svg PUBLIC "-//W3C//DTD SVG 20010904//EN"
 "http://www.w3.org/TR/2001/REC-SVG-20010904/DTD/svg10.dtd">
<svg version="1.0" xmlns="http://www.w3.org/2000/svg"
 width="512.000000pt" height="512.000000pt" viewBox="0 0 512.000000 512.000000"
 preserveAspectRatio="xMidYMid meet">

<g transform="translate(0.000000,512.000000) scale(0.100000,-0.100000)"
fill="#000000" stroke="none">
<path d="M1853 5109 c-78 -13 -178 -54 -253 -104 -90 -60 -198 -176 -243 -263
-33 -62 -40 -70 -79 -81 -136 -40 -285 -169 -351 -302 -43 -88 -67 -186 -67
-279 l0 -65 -48 -27 c-148 -84 -276 -259 -328 -449 -27 -99 -25 -274 4 -367
l23 -73 -65 -69 c-111 -118 -186 -305 -186 -463 0 -124 44 -289 105 -393 l25
-43 -30 -49 c-69 -112 -108 -282 -96 -413 12 -132 78 -290 162 -387 l37 -43 2
-122 c2 -95 7 -138 25 -192 69 -215 201 -370 393 -461 75 -35 185 -64 249 -64
33 0 41 -5 69 -47 101 -151 277 -276 458 -325 111 -30 288 -30 394 0 194 55
373 188 470 349 18 29 34 52 37 52 3 0 19 -23 37 -52 97 -161 276 -294 470
-349 106 -30 283 -30 394 0 181 49 357 174 458 325 28 42 36 47 69 47 69 0
177 30 260 70 184 91 316 249 382 455 18 55 23 97 25 191 l1 122 38 43 c52 61
104 156 134 247 21 64 26 96 26 192 0 138 -17 210 -78 331 l-43 86 23 39 c58
95 103 263 104 387 1 160 -74 348 -186 467 l-65 69 23 73 c29 93 31 268 4 367
-52 190 -180 365 -328 449 l-48 27 0 65 c0 93 -24 191 -67 279 -66 132 -217
262 -351 302 -39 11 -46 19 -79 81 -107 203 -340 358 -563 374 -238 17 -464
-102 -622 -326 l-18 -25 -17 25 c-174 245 -428 363 -690 319z m207 -205 c177
-41 332 -200 381 -392 17 -68 19 -113 19 -487 l0 -412 -67 23 c-138 47 -233
16 -233 -77 0 -57 40 -90 125 -104 21 -4 51 -13 66 -20 39 -21 87 -79 98 -122
7 -25 11 -357 11 -991 l0 -953 -57 49 c-126 108 -242 167 -385 196 -141 29
-216 18 -244 -35 -38 -74 11 -149 97 -149 16 0 65 -7 107 -16 238 -48 419
-232 468 -473 59 -299 -127 -617 -417 -712 -92 -30 -231 -32 -324 -5 -152 45
-284 147 -363 283 -23 38 -48 76 -57 83 -11 10 -50 15 -118 16 -144 3 -230 37
-329 132 -133 127 -193 291 -168 460 7 41 9 85 6 98 -4 14 -34 53 -67 87 -111
113 -164 272 -140 417 11 66 53 180 66 180 4 0 25 -13 48 -29 138 -94 340
-146 422 -109 29 13 55 55 55 88 0 29 -26 76 -47 85 -10 4 -56 13 -102 20
-282 44 -485 316 -443 593 21 138 81 233 225 358 53 45 60 79 31 136 -61 117
-76 238 -45 356 56 217 222 376 423 405 185 26 382 -82 487 -268 34 -60 71
-186 71 -241 0 -89 74 -138 149 -100 53 28 64 96 35 234 -53 257 -243 472
-489 553 -56 19 -92 23 -182 24 l-113 0 7 50 c19 150 115 273 256 327 38 15
75 21 137 21 102 0 174 -25 248 -83 66 -52 96 -63 138 -50 41 14 64 49 64 99
0 33 -7 45 -43 80 -72 69 -183 128 -274 146 -18 4 -33 9 -33 12 0 17 79 99
133 137 123 87 234 112 367 80z m1246 -13 c68 -24 171 -97 218 -155 20 -24 36
-46 36 -49 0 -3 -15 -8 -32 -12 -92 -18 -203 -77 -275 -146 -36 -35 -43 -47
-43 -80 0 -50 23 -85 64 -99 42 -13 72 -2 138 50 74 58 146 83 248 83 62 0 99
-6 137 -21 141 -54 237 -177 256 -327 l7 -50 -113 0 c-90 -1 -126 -5 -182 -24
-246 -81 -436 -296 -489 -553 -29 -138 -18 -206 35 -234 75 -38 149 11 149
100 0 55 37 181 71 241 105 186 302 294 487 268 201 -29 367 -188 423 -405 31
-118 16 -239 -45 -356 -29 -57 -22 -91 31 -136 144 -125 204 -220 225 -358 42
-277 -161 -549 -443 -593 -46 -7 -92 -16 -102 -20 -21 -9 -47 -56 -47 -85 0
-33 26 -75 55 -88 82 -37 284 15 422 109 23 16 44 29 48 29 13 0 55 -114 66
-180 24 -145 -29 -304 -140 -417 -33 -34 -63 -74 -67 -88 -3 -14 -1 -55 6 -91
57 -299 -226 -629 -514 -600 -82 8 -102 -4 -155 -94 -83 -140 -213 -241 -366
-286 -93 -27 -232 -25 -324 5 -290 95 -476 413 -417 712 49 241 230 425 468
473 42 9 91 16 107 16 86 0 135 75 97 149 -28 53 -103 64 -244 35 -143 -29
-259 -88 -384 -196 l-58 -49 0 953 c0 634 4 966 11 991 11 43 59 101 98 122
15 7 45 16 66 20 85 14 125 47 125 104 0 93 -95 124 -232 77 l-68 -23 0 412
c0 374 2 419 19 487 62 243 282 419 504 403 38 -3 93 -14 123 -24z"/>
<path d="M2011 4276 c-87 -48 -50 -186 49 -186 51 0 100 49 100 99 0 75 -83
124 -149 87z"/>
<path d="M1109 3445 c-40 -22 -53 -64 -46 -151 24 -284 234 -532 515 -610 71
-20 73 -27 22 -97 -51 -69 -121 -110 -207 -122 -71 -9 -102 -24 -118 -56 -39
-75 10 -149 100 -149 65 0 172 31 232 66 109 66 188 161 228 277 l20 61 74 18
c101 25 214 83 278 143 45 43 53 56 53 87 0 26 -8 45 -29 67 -42 45 -92 43
-154 -4 -160 -122 -356 -144 -532 -60 -162 79 -259 217 -279 400 -9 80 -23
113 -57 130 -35 19 -66 18 -100 0z"/>
<path d="M1796 2014 c-193 -38 -347 -122 -484 -263 -65 -66 -127 -154 -144
-202 -14 -41 13 -96 55 -114 58 -24 97 -6 147 68 132 191 294 292 514 318 113
13 143 24 161 60 27 52 11 110 -36 135 -34 17 -121 17 -213 -2z"/>
<path d="M1111 1217 c-48 -28 -63 -85 -36 -136 17 -33 44 -45 145 -60 45 -7
101 -24 140 -43 80 -40 183 -140 229 -222 34 -61 71 -187 71 -242 0 -89 74
-138 149 -100 53 28 64 96 35 234 -52 253 -237 466 -476 548 -90 31 -222 41
-257 21z"/>
<path d="M3011 4276 c-87 -48 -50 -186 49 -186 51 0 100 49 100 99 0 75 -83
124 -149 87z"/>
<path d="M3911 3446 c-32 -17 -50 -53 -51 -96 0 -54 -27 -147 -61 -219 -81
-165 -290 -284 -469 -267 -114 12 -181 37 -279 107 -71 51 -120 53 -162 8 -21
-22 -29 -41 -29 -67 0 -31 8 -44 53 -87 64 -60 177 -118 278 -143 l74 -18 20
-61 c40 -116 119 -211 228 -277 60 -35 167 -66 232 -66 90 0 139 74 100 149
-16 32 -47 47 -118 56 -86 12 -156 53 -207 122 -51 70 -49 77 22 97 178 49
336 171 428 331 67 116 108 316 80 385 -22 52 -88 74 -139 46z"/>
<path d="M3111 2017 c-48 -28 -63 -85 -36 -136 18 -36 48 -47 161 -60 220 -26
382 -127 514 -318 50 -74 89 -92 147 -68 42 18 69 73 55 114 -29 84 -152 227
-265 310 -78 57 -204 116 -302 141 -105 28 -242 36 -274 17z"/>
<path d="M3850 1223 c-60 -10 -160 -48 -223 -85 -179 -104 -309 -286 -351
-490 -29 -138 -18 -206 35 -234 74 -38 149 12 149 99 0 56 37 181 71 243 46
82 149 182 229 222 39 19 95 36 140 43 101 15 128 27 145 60 27 52 11 110 -36
135 -26 13 -102 17 -159 7z"/>
</g>
</svg>
